<mxfile host="app.diagrams.net" modified="2020-11-09T18:08:01.449Z" agent="5.0 (Windows NT 6.1; Win64; x64) AppleWebKit/537.36 (KHTML, like Gecko) Chrome/86.0.4240.183 Safari/537.36" etag="B9oIqfoqPvOh1EP-CrU5" version="13.9.2" type="github">
  <diagram id="9ExOTt3ylyIHJ3yxfhAs" name="Page-1">
    <mxGraphModel dx="1022" dy="450" grid="1" gridSize="10" guides="1" tooltips="1" connect="1" arrows="1" fold="1" page="1" pageScale="1" pageWidth="827" pageHeight="1169" math="0" shadow="0">
      <root>
        <mxCell id="0" />
        <mxCell id="1" parent="0" />
        <mxCell id="5jvfqZs6cxE1F1yHet_P-27" value="Movable&#xa;&lt;&lt;interface&gt;&gt;" style="swimlane;fontStyle=1;childLayout=stackLayout;horizontal=1;startSize=40;fillColor=none;horizontalStack=0;resizeParent=1;resizeParentMax=0;resizeLast=0;collapsible=1;marginBottom=0;" parent="1" vertex="1">
          <mxGeometry x="320" width="160" height="118" as="geometry" />
        </mxCell>
        <mxCell id="5jvfqZs6cxE1F1yHet_P-28" value="+ move() : void" style="text;strokeColor=none;fillColor=none;align=left;verticalAlign=top;spacingLeft=4;spacingRight=4;overflow=hidden;rotatable=0;points=[[0,0.5],[1,0.5]];portConstraint=eastwest;" parent="5jvfqZs6cxE1F1yHet_P-27" vertex="1">
          <mxGeometry y="40" width="160" height="26" as="geometry" />
        </mxCell>
        <mxCell id="5jvfqZs6cxE1F1yHet_P-29" value="+ turnLeft() : void" style="text;strokeColor=none;fillColor=none;align=left;verticalAlign=top;spacingLeft=4;spacingRight=4;overflow=hidden;rotatable=0;points=[[0,0.5],[1,0.5]];portConstraint=eastwest;" parent="5jvfqZs6cxE1F1yHet_P-27" vertex="1">
          <mxGeometry y="66" width="160" height="26" as="geometry" />
        </mxCell>
        <mxCell id="5jvfqZs6cxE1F1yHet_P-30" value="+ turnRight() : void" style="text;strokeColor=none;fillColor=none;align=left;verticalAlign=top;spacingLeft=4;spacingRight=4;overflow=hidden;rotatable=0;points=[[0,0.5],[1,0.5]];portConstraint=eastwest;" parent="5jvfqZs6cxE1F1yHet_P-27" vertex="1">
          <mxGeometry y="92" width="160" height="26" as="geometry" />
        </mxCell>
        <mxCell id="5jvfqZs6cxE1F1yHet_P-31" value="Car&#xa;{abstract}&#xa;" style="swimlane;fontStyle=1;align=center;verticalAlign=top;childLayout=stackLayout;horizontal=1;startSize=40;horizontalStack=0;resizeParent=1;resizeParentMax=0;resizeLast=0;collapsible=1;marginBottom=0;" parent="1" vertex="1">
          <mxGeometry x="240" y="200" width="320" height="568" as="geometry" />
        </mxCell>
        <mxCell id="5jvfqZs6cxE1F1yHet_P-46" value="&lt;&lt;get/set&gt;&gt; - x : double" style="text;strokeColor=none;fillColor=none;align=left;verticalAlign=top;spacingLeft=4;spacingRight=4;overflow=hidden;rotatable=0;points=[[0,0.5],[1,0.5]];portConstraint=eastwest;" parent="5jvfqZs6cxE1F1yHet_P-31" vertex="1">
          <mxGeometry y="40" width="320" height="26" as="geometry" />
        </mxCell>
        <mxCell id="5jvfqZs6cxE1F1yHet_P-47" value="&lt;&lt;get/set&gt;&gt; - y : double" style="text;strokeColor=none;fillColor=none;align=left;verticalAlign=top;spacingLeft=4;spacingRight=4;overflow=hidden;rotatable=0;points=[[0,0.5],[1,0.5]];portConstraint=eastwest;" parent="5jvfqZs6cxE1F1yHet_P-31" vertex="1">
          <mxGeometry y="66" width="320" height="26" as="geometry" />
        </mxCell>
        <mxCell id="5jvfqZs6cxE1F1yHet_P-32" value="&lt;&lt;get/set&gt;&gt; - nrDoors : int" style="text;strokeColor=none;fillColor=none;align=left;verticalAlign=top;spacingLeft=4;spacingRight=4;overflow=hidden;rotatable=0;points=[[0,0.5],[1,0.5]];portConstraint=eastwest;" parent="5jvfqZs6cxE1F1yHet_P-31" vertex="1">
          <mxGeometry y="92" width="320" height="26" as="geometry" />
        </mxCell>
        <mxCell id="5jvfqZs6cxE1F1yHet_P-33" value="&lt;&lt;get/set&gt;&gt; - enginePower : double" style="text;strokeColor=none;fillColor=none;align=left;verticalAlign=top;spacingLeft=4;spacingRight=4;overflow=hidden;rotatable=0;points=[[0,0.5],[1,0.5]];portConstraint=eastwest;" parent="5jvfqZs6cxE1F1yHet_P-31" vertex="1">
          <mxGeometry y="118" width="320" height="26" as="geometry" />
        </mxCell>
        <mxCell id="5jvfqZs6cxE1F1yHet_P-34" value="&lt;&lt;get/set&gt;&gt;- currentSpeed : double" style="text;strokeColor=none;fillColor=none;align=left;verticalAlign=top;spacingLeft=4;spacingRight=4;overflow=hidden;rotatable=0;points=[[0,0.5],[1,0.5]];portConstraint=eastwest;" parent="5jvfqZs6cxE1F1yHet_P-31" vertex="1">
          <mxGeometry y="144" width="320" height="26" as="geometry" />
        </mxCell>
        <mxCell id="5jvfqZs6cxE1F1yHet_P-35" value="&lt;&lt;get/set&gt;&gt; - color : Color" style="text;strokeColor=none;fillColor=none;align=left;verticalAlign=top;spacingLeft=4;spacingRight=4;overflow=hidden;rotatable=0;points=[[0,0.5],[1,0.5]];portConstraint=eastwest;" parent="5jvfqZs6cxE1F1yHet_P-31" vertex="1">
          <mxGeometry y="170" width="320" height="26" as="geometry" />
        </mxCell>
        <mxCell id="5jvfqZs6cxE1F1yHet_P-36" value="&lt;&lt;get/set&gt;&gt; - modelName : String" style="text;strokeColor=none;fillColor=none;align=left;verticalAlign=top;spacingLeft=4;spacingRight=4;overflow=hidden;rotatable=0;points=[[0,0.5],[1,0.5]];portConstraint=eastwest;" parent="5jvfqZs6cxE1F1yHet_P-31" vertex="1">
          <mxGeometry y="196" width="320" height="26" as="geometry" />
        </mxCell>
        <mxCell id="5jvfqZs6cxE1F1yHet_P-37" value="" style="line;strokeWidth=1;fillColor=none;align=left;verticalAlign=middle;spacingTop=-1;spacingLeft=3;spacingRight=3;rotatable=0;labelPosition=right;points=[];portConstraint=eastwest;" parent="5jvfqZs6cxE1F1yHet_P-31" vertex="1">
          <mxGeometry y="222" width="320" height="8" as="geometry" />
        </mxCell>
        <mxCell id="5jvfqZs6cxE1F1yHet_P-48" value="+ Car()" style="text;strokeColor=none;fillColor=none;align=left;verticalAlign=top;spacingLeft=4;spacingRight=4;overflow=hidden;rotatable=0;points=[[0,0.5],[1,0.5]];portConstraint=eastwest;" parent="5jvfqZs6cxE1F1yHet_P-31" vertex="1">
          <mxGeometry y="230" width="320" height="26" as="geometry" />
        </mxCell>
        <mxCell id="5jvfqZs6cxE1F1yHet_P-38" value="+ startEngine(): void" style="text;strokeColor=none;fillColor=none;align=left;verticalAlign=top;spacingLeft=4;spacingRight=4;overflow=hidden;rotatable=0;points=[[0,0.5],[1,0.5]];portConstraint=eastwest;" parent="5jvfqZs6cxE1F1yHet_P-31" vertex="1">
          <mxGeometry y="256" width="320" height="26" as="geometry" />
        </mxCell>
        <mxCell id="5jvfqZs6cxE1F1yHet_P-39" value="+ stopEngine(): void" style="text;strokeColor=none;fillColor=none;align=left;verticalAlign=top;spacingLeft=4;spacingRight=4;overflow=hidden;rotatable=0;points=[[0,0.5],[1,0.5]];portConstraint=eastwest;" parent="5jvfqZs6cxE1F1yHet_P-31" vertex="1">
          <mxGeometry y="282" width="320" height="26" as="geometry" />
        </mxCell>
        <mxCell id="5jvfqZs6cxE1F1yHet_P-50" value="+ move() : void" style="text;strokeColor=none;fillColor=none;align=left;verticalAlign=top;spacingLeft=4;spacingRight=4;overflow=hidden;rotatable=0;points=[[0,0.5],[1,0.5]];portConstraint=eastwest;" parent="5jvfqZs6cxE1F1yHet_P-31" vertex="1">
          <mxGeometry y="308" width="320" height="26" as="geometry" />
        </mxCell>
        <mxCell id="5jvfqZs6cxE1F1yHet_P-51" value="+ turnLeft() : void" style="text;strokeColor=none;fillColor=none;align=left;verticalAlign=top;spacingLeft=4;spacingRight=4;overflow=hidden;rotatable=0;points=[[0,0.5],[1,0.5]];portConstraint=eastwest;" parent="5jvfqZs6cxE1F1yHet_P-31" vertex="1">
          <mxGeometry y="334" width="320" height="26" as="geometry" />
        </mxCell>
        <mxCell id="5jvfqZs6cxE1F1yHet_P-52" value="+ turnRight() : void" style="text;strokeColor=none;fillColor=none;align=left;verticalAlign=top;spacingLeft=4;spacingRight=4;overflow=hidden;rotatable=0;points=[[0,0.5],[1,0.5]];portConstraint=eastwest;" parent="5jvfqZs6cxE1F1yHet_P-31" vertex="1">
          <mxGeometry y="360" width="320" height="26" as="geometry" />
        </mxCell>
        <mxCell id="QgUYAG2iofooA8F9H0BW-3" value="+ toString() : String" style="text;strokeColor=none;fillColor=none;align=left;verticalAlign=top;spacingLeft=4;spacingRight=4;overflow=hidden;rotatable=0;points=[[0,0.5],[1,0.5]];portConstraint=eastwest;" parent="5jvfqZs6cxE1F1yHet_P-31" vertex="1">
          <mxGeometry y="386" width="320" height="26" as="geometry" />
        </mxCell>
        <mxCell id="5jvfqZs6cxE1F1yHet_P-40" value="&lt;&lt;abstract&gt;&gt; + speedFactor(): double" style="text;strokeColor=none;fillColor=none;align=left;verticalAlign=top;spacingLeft=4;spacingRight=4;overflow=hidden;rotatable=0;points=[[0,0.5],[1,0.5]];portConstraint=eastwest;" parent="5jvfqZs6cxE1F1yHet_P-31" vertex="1">
          <mxGeometry y="412" width="320" height="26" as="geometry" />
        </mxCell>
        <mxCell id="5jvfqZs6cxE1F1yHet_P-41" value="+ incrementSpeed(amount : double): void" style="text;strokeColor=none;fillColor=none;align=left;verticalAlign=top;spacingLeft=4;spacingRight=4;overflow=hidden;rotatable=0;points=[[0,0.5],[1,0.5]];portConstraint=eastwest;" parent="5jvfqZs6cxE1F1yHet_P-31" vertex="1">
          <mxGeometry y="438" width="320" height="26" as="geometry" />
        </mxCell>
        <mxCell id="5jvfqZs6cxE1F1yHet_P-42" value="+ decrementSpeed(amount : double): void" style="text;strokeColor=none;fillColor=none;align=left;verticalAlign=top;spacingLeft=4;spacingRight=4;overflow=hidden;rotatable=0;points=[[0,0.5],[1,0.5]];portConstraint=eastwest;" parent="5jvfqZs6cxE1F1yHet_P-31" vertex="1">
          <mxGeometry y="464" width="320" height="26" as="geometry" />
        </mxCell>
        <mxCell id="5jvfqZs6cxE1F1yHet_P-43" value="+ gas(amount : double): void" style="text;strokeColor=none;fillColor=none;align=left;verticalAlign=top;spacingLeft=4;spacingRight=4;overflow=hidden;rotatable=0;points=[[0,0.5],[1,0.5]];portConstraint=eastwest;" parent="5jvfqZs6cxE1F1yHet_P-31" vertex="1">
          <mxGeometry y="490" width="320" height="26" as="geometry" />
        </mxCell>
        <mxCell id="5jvfqZs6cxE1F1yHet_P-44" value="+ brake(amount : double): void" style="text;strokeColor=none;fillColor=none;align=left;verticalAlign=top;spacingLeft=4;spacingRight=4;overflow=hidden;rotatable=0;points=[[0,0.5],[1,0.5]];portConstraint=eastwest;" parent="5jvfqZs6cxE1F1yHet_P-31" vertex="1">
          <mxGeometry y="516" width="320" height="26" as="geometry" />
        </mxCell>
        <mxCell id="QgUYAG2iofooA8F9H0BW-2" value="+ gasOrBrake(amount : double, s : String): void" style="text;strokeColor=none;fillColor=none;align=left;verticalAlign=top;spacingLeft=4;spacingRight=4;overflow=hidden;rotatable=0;points=[[0,0.5],[1,0.5]];portConstraint=eastwest;" parent="5jvfqZs6cxE1F1yHet_P-31" vertex="1">
          <mxGeometry y="542" width="320" height="26" as="geometry" />
        </mxCell>
        <mxCell id="5jvfqZs6cxE1F1yHet_P-45" value="" style="endArrow=block;dashed=1;endFill=0;endSize=12;html=1;entryX=0.5;entryY=1.038;entryDx=0;entryDy=0;entryPerimeter=0;" parent="1" source="5jvfqZs6cxE1F1yHet_P-31" target="5jvfqZs6cxE1F1yHet_P-30" edge="1">
          <mxGeometry width="160" relative="1" as="geometry">
            <mxPoint x="580" y="280" as="sourcePoint" />
            <mxPoint x="740" y="280" as="targetPoint" />
          </mxGeometry>
        </mxCell>
        <mxCell id="5jvfqZs6cxE1F1yHet_P-53" value="Saab95" style="swimlane;fontStyle=1;align=center;verticalAlign=top;childLayout=stackLayout;horizontal=1;startSize=26;horizontalStack=0;resizeParent=1;resizeParentMax=0;resizeLast=0;collapsible=1;marginBottom=0;" parent="1" vertex="1">
          <mxGeometry x="80" y="880" width="280" height="190" as="geometry" />
        </mxCell>
        <mxCell id="5jvfqZs6cxE1F1yHet_P-54" value="- turboOn : boolean" style="text;strokeColor=none;fillColor=none;align=left;verticalAlign=top;spacingLeft=4;spacingRight=4;overflow=hidden;rotatable=0;points=[[0,0.5],[1,0.5]];portConstraint=eastwest;fontStyle=0" parent="5jvfqZs6cxE1F1yHet_P-53" vertex="1">
          <mxGeometry y="26" width="280" height="26" as="geometry" />
        </mxCell>
        <mxCell id="5jvfqZs6cxE1F1yHet_P-55" value="" style="line;strokeWidth=1;fillColor=none;align=left;verticalAlign=middle;spacingTop=-1;spacingLeft=3;spacingRight=3;rotatable=0;labelPosition=right;points=[];portConstraint=eastwest;" parent="5jvfqZs6cxE1F1yHet_P-53" vertex="1">
          <mxGeometry y="52" width="280" height="8" as="geometry" />
        </mxCell>
        <mxCell id="5jvfqZs6cxE1F1yHet_P-56" value="+ Saab95()" style="text;strokeColor=none;fillColor=none;align=left;verticalAlign=top;spacingLeft=4;spacingRight=4;overflow=hidden;rotatable=0;points=[[0,0.5],[1,0.5]];portConstraint=eastwest;" parent="5jvfqZs6cxE1F1yHet_P-53" vertex="1">
          <mxGeometry y="60" width="280" height="26" as="geometry" />
        </mxCell>
        <mxCell id="5jvfqZs6cxE1F1yHet_P-57" value="+ setTurboOn(): void" style="text;strokeColor=none;fillColor=none;align=left;verticalAlign=top;spacingLeft=4;spacingRight=4;overflow=hidden;rotatable=0;points=[[0,0.5],[1,0.5]];portConstraint=eastwest;" parent="5jvfqZs6cxE1F1yHet_P-53" vertex="1">
          <mxGeometry y="86" width="280" height="26" as="geometry" />
        </mxCell>
        <mxCell id="5jvfqZs6cxE1F1yHet_P-58" value="+ setTurboOff(): void" style="text;strokeColor=none;fillColor=none;align=left;verticalAlign=top;spacingLeft=4;spacingRight=4;overflow=hidden;rotatable=0;points=[[0,0.5],[1,0.5]];portConstraint=eastwest;" parent="5jvfqZs6cxE1F1yHet_P-53" vertex="1">
          <mxGeometry y="112" width="280" height="26" as="geometry" />
        </mxCell>
        <mxCell id="QgUYAG2iofooA8F9H0BW-6" value="+ isTurboOn(): boolean" style="text;strokeColor=none;fillColor=none;align=left;verticalAlign=top;spacingLeft=4;spacingRight=4;overflow=hidden;rotatable=0;points=[[0,0.5],[1,0.5]];portConstraint=eastwest;" parent="5jvfqZs6cxE1F1yHet_P-53" vertex="1">
          <mxGeometry y="138" width="280" height="26" as="geometry" />
        </mxCell>
        <mxCell id="5jvfqZs6cxE1F1yHet_P-59" value="+ speedFactor(): double" style="text;strokeColor=none;fillColor=none;align=left;verticalAlign=top;spacingLeft=4;spacingRight=4;overflow=hidden;rotatable=0;points=[[0,0.5],[1,0.5]];portConstraint=eastwest;" parent="5jvfqZs6cxE1F1yHet_P-53" vertex="1">
          <mxGeometry y="164" width="280" height="26" as="geometry" />
        </mxCell>
        <mxCell id="5jvfqZs6cxE1F1yHet_P-62" value="Volvo240" style="swimlane;fontStyle=1;align=center;verticalAlign=top;childLayout=stackLayout;horizontal=1;startSize=26;horizontalStack=0;resizeParent=1;resizeParentMax=0;resizeLast=0;collapsible=1;marginBottom=0;" parent="1" vertex="1">
          <mxGeometry x="440" y="880" width="280" height="112" as="geometry" />
        </mxCell>
        <mxCell id="5jvfqZs6cxE1F1yHet_P-63" value="- trimFactor : double {final}" style="text;strokeColor=none;fillColor=none;align=left;verticalAlign=top;spacingLeft=4;spacingRight=4;overflow=hidden;rotatable=0;points=[[0,0.5],[1,0.5]];portConstraint=eastwest;fontStyle=4" parent="5jvfqZs6cxE1F1yHet_P-62" vertex="1">
          <mxGeometry y="26" width="280" height="26" as="geometry" />
        </mxCell>
        <mxCell id="5jvfqZs6cxE1F1yHet_P-64" value="" style="line;strokeWidth=1;fillColor=none;align=left;verticalAlign=middle;spacingTop=-1;spacingLeft=3;spacingRight=3;rotatable=0;labelPosition=right;points=[];portConstraint=eastwest;" parent="5jvfqZs6cxE1F1yHet_P-62" vertex="1">
          <mxGeometry y="52" width="280" height="8" as="geometry" />
        </mxCell>
        <mxCell id="5jvfqZs6cxE1F1yHet_P-65" value="+ Volvo240()" style="text;strokeColor=none;fillColor=none;align=left;verticalAlign=top;spacingLeft=4;spacingRight=4;overflow=hidden;rotatable=0;points=[[0,0.5],[1,0.5]];portConstraint=eastwest;" parent="5jvfqZs6cxE1F1yHet_P-62" vertex="1">
          <mxGeometry y="60" width="280" height="26" as="geometry" />
        </mxCell>
        <mxCell id="5jvfqZs6cxE1F1yHet_P-66" value="+ speedFactor(): double" style="text;strokeColor=none;fillColor=none;align=left;verticalAlign=top;spacingLeft=4;spacingRight=4;overflow=hidden;rotatable=0;points=[[0,0.5],[1,0.5]];portConstraint=eastwest;" parent="5jvfqZs6cxE1F1yHet_P-62" vertex="1">
          <mxGeometry y="86" width="280" height="26" as="geometry" />
        </mxCell>
        <mxCell id="5jvfqZs6cxE1F1yHet_P-70" value="Extends" style="endArrow=block;endSize=16;endFill=0;html=1;exitX=0.5;exitY=0;exitDx=0;exitDy=0;" parent="1" source="5jvfqZs6cxE1F1yHet_P-62" edge="1">
          <mxGeometry width="160" relative="1" as="geometry">
            <mxPoint x="460" y="850" as="sourcePoint" />
            <mxPoint x="400" y="770" as="targetPoint" />
          </mxGeometry>
        </mxCell>
        <mxCell id="5jvfqZs6cxE1F1yHet_P-72" value="Extends" style="endArrow=block;endSize=16;endFill=0;html=1;exitX=0.5;exitY=0;exitDx=0;exitDy=0;entryX=0.497;entryY=1;entryDx=0;entryDy=0;entryPerimeter=0;" parent="1" target="QgUYAG2iofooA8F9H0BW-2" edge="1">
          <mxGeometry width="160" relative="1" as="geometry">
            <mxPoint x="220" y="880" as="sourcePoint" />
            <mxPoint x="400.96000000000004" y="742" as="targetPoint" />
          </mxGeometry>
        </mxCell>
      </root>
    </mxGraphModel>
  </diagram>
</mxfile>
